ISO-10303-21;
HEADER;
/* Generated by software containing ST-Developer
 * from STEP Tools, Inc. (www.steptools.com) 
 */
/* OPTION: using custom renumber hook */

FILE_DESCRIPTION(
/* description */ ('STEP AP242 Edition 2',
'CAx-IF Rec.Pracs.---Representation and Presentation of Product Manufa
cturing Information (PMI)---4.0---2014-10-13',
'CAx-IF Rec.Pracs.---3D Tessellated Geometry---0.4---2014-09-14','2;1',
'CAx-IF Rec.Pracs.---User Defined Attributes---1.5---2016-08-15'),
/* implementation_level */ '2;1');

FILE_NAME(
/* name */ 'Part Studio 1 - TH1041AV',
/* time_stamp */ '2026-09-21T09:22:28Z',
/* author */ (''),
/* organization */ (''),
/* preprocessor_version */ 'ST-DEVELOPER v20',
/* originating_system */ 'ONSHAPE BY PTC INC, 1.221',
/* authorisation */ '  ');

FILE_SCHEMA (('AP242_MANAGED_MODEL_BASED_3D_ENGINEERING_MIM_LF { 1 0 10303 442 3 1 4 }'));
ENDSEC;

DATA;
#10=SHAPE_REPRESENTATION_RELATIONSHIP('','',#357,#11);
#11=ADVANCED_BREP_SHAPE_REPRESENTATION('',(#355),#599);
#12=CYLINDRICAL_SURFACE('',#377,0.001);
#13=CYLINDRICAL_SURFACE('',#378,0.001);
#14=CYLINDRICAL_SURFACE('',#379,0.001);
#15=CYLINDRICAL_SURFACE('',#380,0.001);
#16=CYLINDRICAL_SURFACE('',#390,0.005);
#17=CYLINDRICAL_SURFACE('',#391,0.005);
#18=CYLINDRICAL_SURFACE('',#392,0.005);
#19=CYLINDRICAL_SURFACE('',#393,0.005);
#20=CIRCLE('',#360,0.001);
#21=CIRCLE('',#361,0.001);
#22=CIRCLE('',#362,0.001);
#23=CIRCLE('',#363,0.001);
#24=CIRCLE('',#364,0.005);
#25=CIRCLE('',#365,0.005);
#26=CIRCLE('',#366,0.005);
#27=CIRCLE('',#367,0.005);
#28=CIRCLE('',#373,0.001);
#29=CIRCLE('',#374,0.001);
#30=CIRCLE('',#375,0.001);
#31=CIRCLE('',#376,0.001);
#32=CIRCLE('',#386,0.005);
#33=CIRCLE('',#387,0.005);
#34=CIRCLE('',#388,0.005);
#35=CIRCLE('',#389,0.005);
#36=ORIENTED_EDGE('',*,*,#132,.T.);
#37=ORIENTED_EDGE('',*,*,#133,.T.);
#38=ORIENTED_EDGE('',*,*,#134,.F.);
#39=ORIENTED_EDGE('',*,*,#135,.T.);
#40=ORIENTED_EDGE('',*,*,#136,.F.);
#41=ORIENTED_EDGE('',*,*,#137,.T.);
#42=ORIENTED_EDGE('',*,*,#138,.T.);
#43=ORIENTED_EDGE('',*,*,#139,.T.);
#44=ORIENTED_EDGE('',*,*,#140,.F.);
#45=ORIENTED_EDGE('',*,*,#141,.T.);
#46=ORIENTED_EDGE('',*,*,#142,.T.);
#47=ORIENTED_EDGE('',*,*,#143,.T.);
#48=ORIENTED_EDGE('',*,*,#144,.T.);
#49=ORIENTED_EDGE('',*,*,#145,.T.);
#50=ORIENTED_EDGE('',*,*,#146,.F.);
#51=ORIENTED_EDGE('',*,*,#147,.T.);
#52=ORIENTED_EDGE('',*,*,#148,.F.);
#53=ORIENTED_EDGE('',*,*,#149,.T.);
#54=ORIENTED_EDGE('',*,*,#136,.T.);
#55=ORIENTED_EDGE('',*,*,#150,.T.);
#56=ORIENTED_EDGE('',*,*,#151,.T.);
#57=ORIENTED_EDGE('',*,*,#152,.T.);
#58=ORIENTED_EDGE('',*,*,#138,.F.);
#59=ORIENTED_EDGE('',*,*,#153,.T.);
#60=ORIENTED_EDGE('',*,*,#154,.T.);
#61=ORIENTED_EDGE('',*,*,#155,.T.);
#62=ORIENTED_EDGE('',*,*,#132,.F.);
#63=ORIENTED_EDGE('',*,*,#156,.T.);
#64=ORIENTED_EDGE('',*,*,#134,.T.);
#65=ORIENTED_EDGE('',*,*,#157,.T.);
#66=ORIENTED_EDGE('',*,*,#158,.F.);
#67=ORIENTED_EDGE('',*,*,#159,.T.);
#68=ORIENTED_EDGE('',*,*,#158,.T.);
#69=ORIENTED_EDGE('',*,*,#160,.T.);
#70=ORIENTED_EDGE('',*,*,#154,.F.);
#71=ORIENTED_EDGE('',*,*,#161,.T.);
#72=ORIENTED_EDGE('',*,*,#151,.F.);
#73=ORIENTED_EDGE('',*,*,#162,.T.);
#74=ORIENTED_EDGE('',*,*,#148,.T.);
#75=ORIENTED_EDGE('',*,*,#163,.T.);
#76=ORIENTED_EDGE('',*,*,#133,.F.);
#77=ORIENTED_EDGE('',*,*,#155,.F.);
#78=ORIENTED_EDGE('',*,*,#160,.F.);
#79=ORIENTED_EDGE('',*,*,#157,.F.);
#80=ORIENTED_EDGE('',*,*,#139,.F.);
#81=ORIENTED_EDGE('',*,*,#152,.F.);
#82=ORIENTED_EDGE('',*,*,#161,.F.);
#83=ORIENTED_EDGE('',*,*,#156,.F.);
#84=ORIENTED_EDGE('',*,*,#137,.F.);
#85=ORIENTED_EDGE('',*,*,#149,.F.);
#86=ORIENTED_EDGE('',*,*,#162,.F.);
#87=ORIENTED_EDGE('',*,*,#153,.F.);
#88=ORIENTED_EDGE('',*,*,#135,.F.);
#89=ORIENTED_EDGE('',*,*,#159,.F.);
#90=ORIENTED_EDGE('',*,*,#163,.F.);
#91=ORIENTED_EDGE('',*,*,#150,.F.);
#92=ORIENTED_EDGE('',*,*,#164,.T.);
#93=ORIENTED_EDGE('',*,*,#165,.T.);
#94=ORIENTED_EDGE('',*,*,#142,.F.);
#95=ORIENTED_EDGE('',*,*,#166,.T.);
#96=ORIENTED_EDGE('',*,*,#140,.T.);
#97=ORIENTED_EDGE('',*,*,#167,.T.);
#98=ORIENTED_EDGE('',*,*,#168,.F.);
#99=ORIENTED_EDGE('',*,*,#169,.T.);
#100=ORIENTED_EDGE('',*,*,#170,.F.);
#101=ORIENTED_EDGE('',*,*,#171,.T.);
#102=ORIENTED_EDGE('',*,*,#146,.T.);
#103=ORIENTED_EDGE('',*,*,#172,.T.);
#104=ORIENTED_EDGE('',*,*,#144,.F.);
#105=ORIENTED_EDGE('',*,*,#173,.T.);
#106=ORIENTED_EDGE('',*,*,#174,.T.);
#107=ORIENTED_EDGE('',*,*,#175,.T.);
#108=ORIENTED_EDGE('',*,*,#174,.F.);
#109=ORIENTED_EDGE('',*,*,#176,.T.);
#110=ORIENTED_EDGE('',*,*,#164,.F.);
#111=ORIENTED_EDGE('',*,*,#177,.T.);
#112=ORIENTED_EDGE('',*,*,#168,.T.);
#113=ORIENTED_EDGE('',*,*,#178,.T.);
#114=ORIENTED_EDGE('',*,*,#170,.T.);
#115=ORIENTED_EDGE('',*,*,#179,.T.);
#116=ORIENTED_EDGE('',*,*,#176,.F.);
#117=ORIENTED_EDGE('',*,*,#173,.F.);
#118=ORIENTED_EDGE('',*,*,#143,.F.);
#119=ORIENTED_EDGE('',*,*,#165,.F.);
#120=ORIENTED_EDGE('',*,*,#178,.F.);
#121=ORIENTED_EDGE('',*,*,#167,.F.);
#122=ORIENTED_EDGE('',*,*,#147,.F.);
#123=ORIENTED_EDGE('',*,*,#171,.F.);
#124=ORIENTED_EDGE('',*,*,#177,.F.);
#125=ORIENTED_EDGE('',*,*,#166,.F.);
#126=ORIENTED_EDGE('',*,*,#141,.F.);
#127=ORIENTED_EDGE('',*,*,#169,.F.);
#128=ORIENTED_EDGE('',*,*,#179,.F.);
#129=ORIENTED_EDGE('',*,*,#172,.F.);
#130=ORIENTED_EDGE('',*,*,#145,.F.);
#131=ORIENTED_EDGE('',*,*,#175,.F.);
#132=EDGE_CURVE('',#180,#181,#212,.T.);
#133=EDGE_CURVE('',#181,#182,#20,.T.);
#134=EDGE_CURVE('',#183,#182,#213,.T.);
#135=EDGE_CURVE('',#183,#184,#21,.T.);
#136=EDGE_CURVE('',#185,#184,#214,.T.);
#137=EDGE_CURVE('',#185,#186,#22,.T.);
#138=EDGE_CURVE('',#186,#187,#215,.T.);
#139=EDGE_CURVE('',#187,#180,#23,.T.);
#140=EDGE_CURVE('',#188,#189,#216,.T.);
#141=EDGE_CURVE('',#188,#190,#24,.F.);
#142=EDGE_CURVE('',#190,#191,#217,.T.);
#143=EDGE_CURVE('',#191,#192,#25,.F.);
#144=EDGE_CURVE('',#192,#193,#218,.T.);
#145=EDGE_CURVE('',#193,#194,#26,.F.);
#146=EDGE_CURVE('',#195,#194,#219,.T.);
#147=EDGE_CURVE('',#195,#189,#27,.F.);
#148=EDGE_CURVE('',#196,#197,#220,.T.);
#149=EDGE_CURVE('',#196,#185,#221,.F.);
#150=EDGE_CURVE('',#184,#197,#222,.T.);
#151=EDGE_CURVE('',#198,#199,#223,.T.);
#152=EDGE_CURVE('',#199,#187,#224,.F.);
#153=EDGE_CURVE('',#186,#198,#225,.T.);
#154=EDGE_CURVE('',#200,#201,#226,.T.);
#155=EDGE_CURVE('',#201,#181,#227,.F.);
#156=EDGE_CURVE('',#180,#200,#228,.T.);
#157=EDGE_CURVE('',#182,#202,#229,.T.);
#158=EDGE_CURVE('',#203,#202,#230,.T.);
#159=EDGE_CURVE('',#203,#183,#231,.F.);
#160=EDGE_CURVE('',#202,#201,#28,.F.);
#161=EDGE_CURVE('',#200,#199,#29,.F.);
#162=EDGE_CURVE('',#198,#196,#30,.F.);
#163=EDGE_CURVE('',#197,#203,#31,.F.);
#164=EDGE_CURVE('',#204,#205,#232,.T.);
#165=EDGE_CURVE('',#205,#191,#233,.T.);
#166=EDGE_CURVE('',#190,#204,#234,.F.);
#167=EDGE_CURVE('',#189,#206,#235,.F.);
#168=EDGE_CURVE('',#207,#206,#236,.T.);
#169=EDGE_CURVE('',#207,#188,#237,.T.);
#170=EDGE_CURVE('',#208,#209,#238,.T.);
#171=EDGE_CURVE('',#208,#195,#239,.T.);
#172=EDGE_CURVE('',#194,#209,#240,.F.);
#173=EDGE_CURVE('',#192,#210,#241,.F.);
#174=EDGE_CURVE('',#210,#211,#242,.T.);
#175=EDGE_CURVE('',#211,#193,#243,.T.);
#176=EDGE_CURVE('',#210,#205,#32,.T.);
#177=EDGE_CURVE('',#204,#207,#33,.T.);
#178=EDGE_CURVE('',#206,#208,#34,.T.);
#179=EDGE_CURVE('',#209,#211,#35,.T.);
#180=VERTEX_POINT('',#501);
#181=VERTEX_POINT('',#502);
#182=VERTEX_POINT('',#504);
#183=VERTEX_POINT('',#506);
#184=VERTEX_POINT('',#508);
#185=VERTEX_POINT('',#510);
#186=VERTEX_POINT('',#512);
#187=VERTEX_POINT('',#514);
#188=VERTEX_POINT('',#517);
#189=VERTEX_POINT('',#518);
#190=VERTEX_POINT('',#520);
#191=VERTEX_POINT('',#522);
#192=VERTEX_POINT('',#524);
#193=VERTEX_POINT('',#526);
#194=VERTEX_POINT('',#528);
#195=VERTEX_POINT('',#530);
#196=VERTEX_POINT('',#534);
#197=VERTEX_POINT('',#535);
#198=VERTEX_POINT('',#540);
#199=VERTEX_POINT('',#541);
#200=VERTEX_POINT('',#546);
#201=VERTEX_POINT('',#547);
#202=VERTEX_POINT('',#552);
#203=VERTEX_POINT('',#554);
#204=VERTEX_POINT('',#567);
#205=VERTEX_POINT('',#568);
#206=VERTEX_POINT('',#573);
#207=VERTEX_POINT('',#575);
#208=VERTEX_POINT('',#579);
#209=VERTEX_POINT('',#580);
#210=VERTEX_POINT('',#585);
#211=VERTEX_POINT('',#587);
#212=LINE('',#500,#244);
#213=LINE('',#505,#245);
#214=LINE('',#509,#246);
#215=LINE('',#513,#247);
#216=LINE('',#516,#248);
#217=LINE('',#521,#249);
#218=LINE('',#525,#250);
#219=LINE('',#529,#251);
#220=LINE('',#533,#252);
#221=LINE('',#536,#253);
#222=LINE('',#537,#254);
#223=LINE('',#539,#255);
#224=LINE('',#542,#256);
#225=LINE('',#543,#257);
#226=LINE('',#545,#258);
#227=LINE('',#548,#259);
#228=LINE('',#549,#260);
#229=LINE('',#551,#261);
#230=LINE('',#553,#262);
#231=LINE('',#555,#263);
#232=LINE('',#566,#264);
#233=LINE('',#569,#265);
#234=LINE('',#570,#266);
#235=LINE('',#572,#267);
#236=LINE('',#574,#268);
#237=LINE('',#576,#269);
#238=LINE('',#578,#270);
#239=LINE('',#581,#271);
#240=LINE('',#582,#272);
#241=LINE('',#584,#273);
#242=LINE('',#586,#274);
#243=LINE('',#588,#275);
#244=VECTOR('',#398,1.);
#245=VECTOR('',#401,1.);
#246=VECTOR('',#404,1.);
#247=VECTOR('',#407,1.);
#248=VECTOR('',#410,1.);
#249=VECTOR('',#413,1.);
#250=VECTOR('',#416,1.);
#251=VECTOR('',#419,1.);
#252=VECTOR('',#424,1.);
#253=VECTOR('',#425,1.);
#254=VECTOR('',#426,1.);
#255=VECTOR('',#429,1.);
#256=VECTOR('',#430,1.);
#257=VECTOR('',#431,1.);
#258=VECTOR('',#434,1.);
#259=VECTOR('',#435,1.);
#260=VECTOR('',#436,1.);
#261=VECTOR('',#439,1.);
#262=VECTOR('',#440,1.);
#263=VECTOR('',#441,1.);
#264=VECTOR('',#462,1.);
#265=VECTOR('',#463,1.);
#266=VECTOR('',#464,1.);
#267=VECTOR('',#467,1.);
#268=VECTOR('',#468,1.);
#269=VECTOR('',#469,1.);
#270=VECTOR('',#472,1.);
#271=VECTOR('',#473,1.);
#272=VECTOR('',#474,1.);
#273=VECTOR('',#477,1.);
#274=VECTOR('',#478,1.);
#275=VECTOR('',#479,1.);
#276=EDGE_LOOP('',(#36,#37,#38,#39,#40,#41,#42,#43));
#277=EDGE_LOOP('',(#44,#45,#46,#47,#48,#49,#50,#51));
#278=EDGE_LOOP('',(#52,#53,#54,#55));
#279=EDGE_LOOP('',(#56,#57,#58,#59));
#280=EDGE_LOOP('',(#60,#61,#62,#63));
#281=EDGE_LOOP('',(#64,#65,#66,#67));
#282=EDGE_LOOP('',(#68,#69,#70,#71,#72,#73,#74,#75));
#283=EDGE_LOOP('',(#76,#77,#78,#79));
#284=EDGE_LOOP('',(#80,#81,#82,#83));
#285=EDGE_LOOP('',(#84,#85,#86,#87));
#286=EDGE_LOOP('',(#88,#89,#90,#91));
#287=EDGE_LOOP('',(#92,#93,#94,#95));
#288=EDGE_LOOP('',(#96,#97,#98,#99));
#289=EDGE_LOOP('',(#100,#101,#102,#103));
#290=EDGE_LOOP('',(#104,#105,#106,#107));
#291=EDGE_LOOP('',(#108,#109,#110,#111,#112,#113,#114,#115));
#292=EDGE_LOOP('',(#116,#117,#118,#119));
#293=EDGE_LOOP('',(#120,#121,#122,#123));
#294=EDGE_LOOP('',(#124,#125,#126,#127));
#295=EDGE_LOOP('',(#128,#129,#130,#131));
#296=FACE_BOUND('',#276,.T.);
#297=FACE_BOUND('',#277,.T.);
#298=FACE_BOUND('',#278,.T.);
#299=FACE_BOUND('',#279,.T.);
#300=FACE_BOUND('',#280,.T.);
#301=FACE_BOUND('',#281,.T.);
#302=FACE_BOUND('',#282,.T.);
#303=FACE_BOUND('',#283,.T.);
#304=FACE_BOUND('',#284,.T.);
#305=FACE_BOUND('',#285,.T.);
#306=FACE_BOUND('',#286,.T.);
#307=FACE_BOUND('',#287,.T.);
#308=FACE_BOUND('',#288,.T.);
#309=FACE_BOUND('',#289,.T.);
#310=FACE_BOUND('',#290,.T.);
#311=FACE_BOUND('',#291,.T.);
#312=FACE_BOUND('',#292,.T.);
#313=FACE_BOUND('',#293,.T.);
#314=FACE_BOUND('',#294,.T.);
#315=FACE_BOUND('',#295,.T.);
#316=PLANE('',#359);
#317=PLANE('',#368);
#318=PLANE('',#369);
#319=PLANE('',#370);
#320=PLANE('',#371);
#321=PLANE('',#372);
#322=PLANE('',#381);
#323=PLANE('',#382);
#324=PLANE('',#383);
#325=PLANE('',#384);
#326=PLANE('',#385);
#327=ADVANCED_FACE('',(#296,#297),#316,.T.);
#328=ADVANCED_FACE('',(#298),#317,.T.);
#329=ADVANCED_FACE('',(#299),#318,.F.);
#330=ADVANCED_FACE('',(#300),#319,.F.);
#331=ADVANCED_FACE('',(#301),#320,.T.);
#332=ADVANCED_FACE('',(#302),#321,.F.);
#333=ADVANCED_FACE('',(#303),#12,.T.);
#334=ADVANCED_FACE('',(#304),#13,.T.);
#335=ADVANCED_FACE('',(#305),#14,.T.);
#336=ADVANCED_FACE('',(#306),#15,.T.);
#337=ADVANCED_FACE('',(#307),#322,.T.);
#338=ADVANCED_FACE('',(#308),#323,.F.);
#339=ADVANCED_FACE('',(#309),#324,.F.);
#340=ADVANCED_FACE('',(#310),#325,.T.);
#341=ADVANCED_FACE('',(#311),#326,.T.);
#342=ADVANCED_FACE('',(#312),#16,.F.);
#343=ADVANCED_FACE('',(#313),#17,.F.);
#344=ADVANCED_FACE('',(#314),#18,.F.);
#345=ADVANCED_FACE('',(#315),#19,.F.);
#346=CLOSED_SHELL('',(#327,#328,#329,#330,#331,#332,#333,#334,#335,#336,
#337,#338,#339,#340,#341,#342,#343,#344,#345));
#347=STYLED_ITEM('',(#348),#355);
#348=PRESENTATION_STYLE_ASSIGNMENT((#349));
#349=SURFACE_STYLE_USAGE(.BOTH.,#350);
#350=SURFACE_SIDE_STYLE('',(#351));
#351=SURFACE_STYLE_FILL_AREA(#352);
#352=FILL_AREA_STYLE('',(#353));
#353=FILL_AREA_STYLE_COLOUR('',#354);
#354=COLOUR_RGB('',0.615686274509804,0.811764705882353,0.929411764705882);
#355=MANIFOLD_SOLID_BREP('TH1041AV',#346);
#356=SHAPE_DEFINITION_REPRESENTATION(#604,#357);
#357=SHAPE_REPRESENTATION('TH1041AV',(#358),#599);
#358=AXIS2_PLACEMENT_3D('',#498,#394,#395);
#359=AXIS2_PLACEMENT_3D('',#499,#396,#397);
#360=AXIS2_PLACEMENT_3D('',#503,#399,#400);
#361=AXIS2_PLACEMENT_3D('',#507,#402,#403);
#362=AXIS2_PLACEMENT_3D('',#511,#405,#406);
#363=AXIS2_PLACEMENT_3D('',#515,#408,#409);
#364=AXIS2_PLACEMENT_3D('',#519,#411,#412);
#365=AXIS2_PLACEMENT_3D('',#523,#414,#415);
#366=AXIS2_PLACEMENT_3D('',#527,#417,#418);
#367=AXIS2_PLACEMENT_3D('',#531,#420,#421);
#368=AXIS2_PLACEMENT_3D('',#532,#422,#423);
#369=AXIS2_PLACEMENT_3D('',#538,#427,#428);
#370=AXIS2_PLACEMENT_3D('',#544,#432,#433);
#371=AXIS2_PLACEMENT_3D('',#550,#437,#438);
#372=AXIS2_PLACEMENT_3D('',#556,#442,#443);
#373=AXIS2_PLACEMENT_3D('',#557,#444,#445);
#374=AXIS2_PLACEMENT_3D('',#558,#446,#447);
#375=AXIS2_PLACEMENT_3D('',#559,#448,#449);
#376=AXIS2_PLACEMENT_3D('',#560,#450,#451);
#377=AXIS2_PLACEMENT_3D('',#561,#452,#453);
#378=AXIS2_PLACEMENT_3D('',#562,#454,#455);
#379=AXIS2_PLACEMENT_3D('',#563,#456,#457);
#380=AXIS2_PLACEMENT_3D('',#564,#458,#459);
#381=AXIS2_PLACEMENT_3D('',#565,#460,#461);
#382=AXIS2_PLACEMENT_3D('',#571,#465,#466);
#383=AXIS2_PLACEMENT_3D('',#577,#470,#471);
#384=AXIS2_PLACEMENT_3D('',#583,#475,#476);
#385=AXIS2_PLACEMENT_3D('',#589,#480,#481);
#386=AXIS2_PLACEMENT_3D('',#590,#482,#483);
#387=AXIS2_PLACEMENT_3D('',#591,#484,#485);
#388=AXIS2_PLACEMENT_3D('',#592,#486,#487);
#389=AXIS2_PLACEMENT_3D('',#593,#488,#489);
#390=AXIS2_PLACEMENT_3D('',#594,#490,#491);
#391=AXIS2_PLACEMENT_3D('',#595,#492,#493);
#392=AXIS2_PLACEMENT_3D('',#596,#494,#495);
#393=AXIS2_PLACEMENT_3D('',#597,#496,#497);
#394=DIRECTION('',(0.,0.,1.));
#395=DIRECTION('',(1.,0.,0.));
#396=DIRECTION('',(0.,0.,1.));
#397=DIRECTION('',(1.,0.,0.));
#398=DIRECTION('',(-1.,-2.31296463463574E-16,0.));
#399=DIRECTION('',(0.,0.,1.));
#400=DIRECTION('',(1.,0.,0.));
#401=DIRECTION('',(1.7347234759768E-16,1.,0.));
#402=DIRECTION('',(0.,0.,1.));
#403=DIRECTION('',(1.,0.,0.));
#404=DIRECTION('',(-1.,-1.15648231731787E-16,0.));
#405=DIRECTION('',(0.,0.,1.));
#406=DIRECTION('',(1.,0.,0.));
#407=DIRECTION('',(-1.7347234759768E-16,1.,0.));
#408=DIRECTION('',(0.,0.,1.));
#409=DIRECTION('',(1.,0.,0.));
#410=DIRECTION('',(1.,0.,0.));
#411=DIRECTION('',(0.,0.,1.));
#412=DIRECTION('',(1.,0.,0.));
#413=DIRECTION('',(0.,1.,0.));
#414=DIRECTION('',(0.,0.,1.));
#415=DIRECTION('',(1.,0.,0.));
#416=DIRECTION('',(1.,0.,0.));
#417=DIRECTION('',(0.,0.,1.));
#418=DIRECTION('',(1.,0.,0.));
#419=DIRECTION('',(0.,1.,0.));
#420=DIRECTION('',(0.,0.,1.));
#421=DIRECTION('',(1.,0.,0.));
#422=DIRECTION('',(1.15648231731787E-16,-1.,0.));
#423=DIRECTION('',(1.,1.15648231731787E-16,0.));
#424=DIRECTION('',(-1.,-1.15648231731787E-16,0.));
#425=DIRECTION('',(0.,0.,-1.));
#426=DIRECTION('',(0.,0.,-1.));
#427=DIRECTION('',(-1.,-1.7347234759768E-16,0.));
#428=DIRECTION('',(1.7347234759768E-16,-1.,0.));
#429=DIRECTION('',(-1.7347234759768E-16,1.,0.));
#430=DIRECTION('',(0.,0.,-1.));
#431=DIRECTION('',(0.,0.,-1.));
#432=DIRECTION('',(2.31296463463574E-16,-1.,0.));
#433=DIRECTION('',(1.,2.31296463463574E-16,0.));
#434=DIRECTION('',(-1.,-2.31296463463574E-16,0.));
#435=DIRECTION('',(0.,0.,-1.));
#436=DIRECTION('',(0.,0.,-1.));
#437=DIRECTION('',(-1.,1.73472347597681E-16,0.));
#438=DIRECTION('',(-1.73472347597681E-16,-1.,0.));
#439=DIRECTION('',(0.,0.,-1.));
#440=DIRECTION('',(1.7347234759768E-16,1.,0.));
#441=DIRECTION('',(0.,0.,-1.));
#442=DIRECTION('',(0.,0.,1.));
#443=DIRECTION('',(1.,0.,0.));
#444=DIRECTION('',(0.,0.,1.));
#445=DIRECTION('',(1.,0.,0.));
#446=DIRECTION('',(0.,0.,1.));
#447=DIRECTION('',(1.,0.,0.));
#448=DIRECTION('',(0.,0.,1.));
#449=DIRECTION('',(1.,0.,0.));
#450=DIRECTION('',(0.,0.,1.));
#451=DIRECTION('',(1.,0.,0.));
#452=DIRECTION('',(0.,0.,1.));
#453=DIRECTION('',(1.,0.,0.));
#454=DIRECTION('',(0.,0.,-1.));
#455=DIRECTION('',(-1.,0.,0.));
#456=DIRECTION('',(0.,0.,1.));
#457=DIRECTION('',(1.,0.,0.));
#458=DIRECTION('',(0.,0.,-1.));
#459=DIRECTION('',(-1.,0.,0.));
#460=DIRECTION('',(1.,0.,0.));
#461=DIRECTION('',(0.,0.,-1.));
#462=DIRECTION('',(0.,1.,0.));
#463=DIRECTION('',(0.,0.,1.));
#464=DIRECTION('',(0.,0.,1.));
#465=DIRECTION('',(0.,-1.,0.));
#466=DIRECTION('',(0.,0.,-1.));
#467=DIRECTION('',(0.,0.,1.));
#468=DIRECTION('',(1.,0.,0.));
#469=DIRECTION('',(0.,0.,1.));
#470=DIRECTION('',(1.,0.,0.));
#471=DIRECTION('',(0.,0.,-1.));
#472=DIRECTION('',(0.,1.,0.));
#473=DIRECTION('',(0.,0.,1.));
#474=DIRECTION('',(0.,0.,1.));
#475=DIRECTION('',(0.,-1.,0.));
#476=DIRECTION('',(0.,0.,-1.));
#477=DIRECTION('',(0.,0.,1.));
#478=DIRECTION('',(1.,0.,0.));
#479=DIRECTION('',(0.,0.,1.));
#480=DIRECTION('',(0.,0.,1.));
#481=DIRECTION('',(1.,0.,0.));
#482=DIRECTION('',(0.,0.,1.));
#483=DIRECTION('',(1.,0.,0.));
#484=DIRECTION('',(0.,0.,1.));
#485=DIRECTION('',(1.,0.,0.));
#486=DIRECTION('',(0.,0.,1.));
#487=DIRECTION('',(1.,0.,0.));
#488=DIRECTION('',(0.,0.,1.));
#489=DIRECTION('',(1.,0.,0.));
#490=DIRECTION('',(0.,0.,-1.));
#491=DIRECTION('',(-1.,0.,0.));
#492=DIRECTION('',(0.,0.,-1.));
#493=DIRECTION('',(-1.,0.,0.));
#494=DIRECTION('',(0.,0.,1.));
#495=DIRECTION('',(1.,0.,0.));
#496=DIRECTION('',(0.,0.,1.));
#497=DIRECTION('',(1.,0.,0.));
#498=CARTESIAN_POINT('',(0.,0.,0.));
#499=CARTESIAN_POINT('',(-1.06752213906265E-16,5.55111512312578E-17,0.04));
#500=CARTESIAN_POINT('',(-1.06752213906265E-16,0.04,0.04));
#501=CARTESIAN_POINT('',(0.029,0.04,0.04));
#502=CARTESIAN_POINT('',(-0.029,0.04,0.04));
#503=CARTESIAN_POINT('',(-0.029,0.039,0.04));
#504=CARTESIAN_POINT('',(-0.03,0.039,0.04));
#505=CARTESIAN_POINT('',(-0.03,5.55111512312578E-17,0.04));
#506=CARTESIAN_POINT('',(-0.03,-0.039,0.04));
#507=CARTESIAN_POINT('',(-0.029,-0.039,0.04));
#508=CARTESIAN_POINT('',(-0.029,-0.04,0.04));
#509=CARTESIAN_POINT('',(-1.10221660858219E-16,-0.04,0.04));
#510=CARTESIAN_POINT('',(0.029,-0.04,0.04));
#511=CARTESIAN_POINT('',(0.029,-0.039,0.04));
#512=CARTESIAN_POINT('',(0.03,-0.039,0.04));
#513=CARTESIAN_POINT('',(0.03,5.55111512312578E-17,0.04));
#514=CARTESIAN_POINT('',(0.03,0.039,0.04));
#515=CARTESIAN_POINT('',(0.029,0.039,0.04));
#516=CARTESIAN_POINT('',(-0.00250000000000009,-0.035,0.04));
#517=CARTESIAN_POINT('',(-0.02,-0.035,0.04));
#518=CARTESIAN_POINT('',(0.015,-0.035,0.04));
#519=CARTESIAN_POINT('',(-0.02,-0.03,0.04));
#520=CARTESIAN_POINT('',(-0.025,-0.03,0.04));
#521=CARTESIAN_POINT('',(-0.025,-0.02,0.04));
#522=CARTESIAN_POINT('',(-0.025,-0.01,0.04));
#523=CARTESIAN_POINT('',(-0.02,-0.01,0.04));
#524=CARTESIAN_POINT('',(-0.02,-0.005,0.04));
#525=CARTESIAN_POINT('',(-0.0025000000000001,-0.005,0.04));
#526=CARTESIAN_POINT('',(0.015,-0.005,0.04));
#527=CARTESIAN_POINT('',(0.015,-0.01,0.04));
#528=CARTESIAN_POINT('',(0.02,-0.01,0.04));
#529=CARTESIAN_POINT('',(0.02,-0.02,0.04));
#530=CARTESIAN_POINT('',(0.02,-0.03,0.04));
#531=CARTESIAN_POINT('',(0.015,-0.03,0.04));
#532=CARTESIAN_POINT('',(-1.10221660858219E-16,-0.04,0.04));
#533=CARTESIAN_POINT('',(-1.10221660858219E-16,-0.04,0.));
#534=CARTESIAN_POINT('',(0.029,-0.04,0.));
#535=CARTESIAN_POINT('',(-0.029,-0.04,0.));
#536=CARTESIAN_POINT('',(0.029,-0.04,0.04));
#537=CARTESIAN_POINT('',(-0.029,-0.04,0.04));
#538=CARTESIAN_POINT('',(0.03,5.55111512312578E-17,0.04));
#539=CARTESIAN_POINT('',(0.03,5.55111512312578E-17,0.));
#540=CARTESIAN_POINT('',(0.03,-0.039,0.));
#541=CARTESIAN_POINT('',(0.03,0.039,0.));
#542=CARTESIAN_POINT('',(0.03,0.039,0.04));
#543=CARTESIAN_POINT('',(0.03,-0.039,0.));
#544=CARTESIAN_POINT('',(-1.06752213906265E-16,0.04,0.04));
#545=CARTESIAN_POINT('',(-1.06752213906265E-16,0.04,0.));
#546=CARTESIAN_POINT('',(0.029,0.04,0.));
#547=CARTESIAN_POINT('',(-0.029,0.04,0.));
#548=CARTESIAN_POINT('',(-0.029,0.04,0.04));
#549=CARTESIAN_POINT('',(0.029,0.04,0.04));
#550=CARTESIAN_POINT('',(-0.03,5.55111512312578E-17,0.04));
#551=CARTESIAN_POINT('',(-0.03,0.039,0.));
#552=CARTESIAN_POINT('',(-0.03,0.039,0.));
#553=CARTESIAN_POINT('',(-0.03,5.55111512312578E-17,0.));
#554=CARTESIAN_POINT('',(-0.03,-0.039,0.));
#555=CARTESIAN_POINT('',(-0.03,-0.039,0.04));
#556=CARTESIAN_POINT('',(-1.06752213906265E-16,5.55111512312578E-17,0.));
#557=CARTESIAN_POINT('',(-0.029,0.039,0.));
#558=CARTESIAN_POINT('',(0.029,0.039,0.));
#559=CARTESIAN_POINT('',(0.029,-0.039,0.));
#560=CARTESIAN_POINT('',(-0.029,-0.039,0.));
#561=CARTESIAN_POINT('',(-0.029,0.039,0.04));
#562=CARTESIAN_POINT('',(0.029,0.039,0.04));
#563=CARTESIAN_POINT('',(0.029,-0.039,0.04));
#564=CARTESIAN_POINT('',(-0.029,-0.039,0.04));
#565=CARTESIAN_POINT('',(-0.025,-0.02,0.025));
#566=CARTESIAN_POINT('',(-0.025,-0.02,0.025));
#567=CARTESIAN_POINT('',(-0.025,-0.03,0.025));
#568=CARTESIAN_POINT('',(-0.025,-0.01,0.025));
#569=CARTESIAN_POINT('',(-0.025,-0.01,0.04));
#570=CARTESIAN_POINT('',(-0.025,-0.03,0.025));
#571=CARTESIAN_POINT('',(-0.00250000000000009,-0.035,0.025));
#572=CARTESIAN_POINT('',(0.015,-0.035,0.025));
#573=CARTESIAN_POINT('',(0.015,-0.035,0.025));
#574=CARTESIAN_POINT('',(-0.00250000000000009,-0.035,0.025));
#575=CARTESIAN_POINT('',(-0.02,-0.035,0.025));
#576=CARTESIAN_POINT('',(-0.02,-0.035,0.025));
#577=CARTESIAN_POINT('',(0.02,-0.02,0.025));
#578=CARTESIAN_POINT('',(0.02,-0.02,0.025));
#579=CARTESIAN_POINT('',(0.02,-0.03,0.025));
#580=CARTESIAN_POINT('',(0.02,-0.01,0.025));
#581=CARTESIAN_POINT('',(0.02,-0.03,0.04));
#582=CARTESIAN_POINT('',(0.02,-0.01,0.025));
#583=CARTESIAN_POINT('',(-0.0025000000000001,-0.005,0.025));
#584=CARTESIAN_POINT('',(-0.02,-0.005,0.025));
#585=CARTESIAN_POINT('',(-0.02,-0.005,0.025));
#586=CARTESIAN_POINT('',(-0.0025000000000001,-0.005,0.025));
#587=CARTESIAN_POINT('',(0.015,-0.005,0.025));
#588=CARTESIAN_POINT('',(0.015,-0.005,0.025));
#589=CARTESIAN_POINT('',(-0.0067426903545857,-0.1275,0.025));
#590=CARTESIAN_POINT('',(-0.02,-0.01,0.025));
#591=CARTESIAN_POINT('',(-0.02,-0.03,0.025));
#592=CARTESIAN_POINT('',(0.015,-0.03,0.025));
#593=CARTESIAN_POINT('',(0.015,-0.01,0.025));
#594=CARTESIAN_POINT('',(-0.02,-0.01,0.025));
#595=CARTESIAN_POINT('',(0.015,-0.03,0.025));
#596=CARTESIAN_POINT('',(-0.02,-0.03,0.025));
#597=CARTESIAN_POINT('',(0.015,-0.01,0.025));
#598=MECHANICAL_DESIGN_GEOMETRIC_PRESENTATION_REPRESENTATION('',(#347),
#599);
#599=(
GEOMETRIC_REPRESENTATION_CONTEXT(3)
GLOBAL_UNCERTAINTY_ASSIGNED_CONTEXT((#600))
GLOBAL_UNIT_ASSIGNED_CONTEXT((#603,#602,#601))
REPRESENTATION_CONTEXT('TH1041AV','TOP_LEVEL_ASSEMBLY_PART')
);
#600=UNCERTAINTY_MEASURE_WITH_UNIT(LENGTH_MEASURE(1.E-8),#603,
'DISTANCE_ACCURACY_VALUE','Maximum Tolerance applied to model');
#601=(
NAMED_UNIT(*)
SI_UNIT($,.STERADIAN.)
SOLID_ANGLE_UNIT()
);
#602=(
NAMED_UNIT(*)
PLANE_ANGLE_UNIT()
SI_UNIT($,.RADIAN.)
);
#603=(
LENGTH_UNIT()
NAMED_UNIT(*)
SI_UNIT($,.METRE.)
);
#604=PRODUCT_DEFINITION_SHAPE('','',#605);
#605=PRODUCT_DEFINITION('','',#607,#606);
#606=PRODUCT_DEFINITION_CONTEXT('',#613,'design');
#607=PRODUCT_DEFINITION_FORMATION_WITH_SPECIFIED_SOURCE('','',#609,
 .NOT_KNOWN.);
#608=PRODUCT_RELATED_PRODUCT_CATEGORY('','',(#609));
#609=PRODUCT('TH1041AV','TH1041AV','TH1041AV',(#611));
#610=PRODUCT_CATEGORY('','');
#611=PRODUCT_CONTEXT('',#613,'mechanical');
#612=APPLICATION_PROTOCOL_DEFINITION('international standard',
'ap242_managed_model_based_3d_engineering',2020,#613);
#613=APPLICATION_CONTEXT('managed model based 3d engineering');
ENDSEC;
END-ISO-10303-21;
